<svg xmlns="http://www.w3.org/2000/svg" width="30" height="40.65" viewBox="0 0 30 40.65"><defs><style>.a{fill:none;stroke:#aaa;stroke-linecap:round;stroke-linejoin:round;stroke-miterlimit:10;stroke-width:1.3px;}.b{fill:#aaa;font-size:10px;font-family:MalgunGothic, Malgun Gothic;}</style></defs><g transform="translate(0 0.65)"><g transform="translate(-163.5 -0.5)"><path class="a" d="M10.3,13.6v3l-5,2.3" transform="translate(166)"/><path class="a" d="M16.1,13.6v3l5.1,2.3" transform="translate(166)"/><path class="a" d="M15,14.1a5.2,5.2,0,0,0,3.5-4.9V4.6A4.055,4.055,0,0,0,14.4.5H12.2A4.14,4.14,0,0,0,8,4.6V9.2a5.2,5.2,0,0,0,3.5,4.9" transform="translate(166)"/><path class="a" d="M4.6,11.3v2.4L.5,15.6" transform="translate(166)"/><path class="a" d="M6.9.5H6.1A3.372,3.372,0,0,0,2.7,3.9V7.6a4.249,4.249,0,0,0,2.8,4" transform="translate(166)"/></g><text class="b" transform="translate(0 38)"><tspan x="0" y="0">내정보</tspan></text></g></svg>