<svg xmlns="http://www.w3.org/2000/svg" width="20" height="41" viewBox="0 0 20 41"><defs><style>.a,.b{fill:#aaa;}.b{font-size:10px;font-family:MalgunGothic, Malgun Gothic;}</style></defs><g transform="translate(-220.5 -15)"><g transform="translate(-597.136 -425.802)"><path class="a" d="M834.075,457.179a1.4,1.4,0,0,1-1.4-1.4v-6.519a6.5,6.5,0,0,0-5.833-6.456v-1.343a.656.656,0,0,0-1.312,0V442.8a6.5,6.5,0,0,0-5.833,6.456v6.519a1.4,1.4,0,0,1-1.4,1.4.656.656,0,1,0,0,1.313h5.343a2.636,2.636,0,1,0,5.1,0h5.344a.656.656,0,0,0,0-1.312Zm-6.757,1.317a1.32,1.32,0,1,1-2.269,0v0h2.266Zm-6.7-1.317a2.7,2.7,0,0,0,.391-1.4v-6.519a5.176,5.176,0,1,1,10.353,0v6.519a2.7,2.7,0,0,0,.391,1.4Z" transform="translate(0 0)"/><path class="a" d="M852.1,471.209a3.544,3.544,0,0,0-3.54,3.54.76.76,0,1,0,1.519,0,2.023,2.023,0,0,1,2.021-2.021.76.76,0,0,0,0-1.519Z" transform="translate(-25.676 -25.192)"/></g><text class="b" transform="translate(220.5 54)"><tspan x="0" y="0">알림</tspan></text></g></svg>