<svg xmlns="http://www.w3.org/2000/svg" width="50" height="41.3" viewBox="0 0 50 41.3"><defs><style>.a{fill:#aaa;font-size:10px;font-family:MalgunGothic, Malgun Gothic;}.b{fill:none;stroke:#aaa;stroke-width:0.6px;}</style></defs><g transform="translate(0 0.3)"><text class="a" transform="translate(0 39)"><tspan x="0" y="0">서비스등록</tspan></text><g transform="translate(17)"><path class="b" d="M1124.348,1745.186a.263.263,0,0,0-.263-.263h0a.263.263,0,0,0-.263.263v1.755h-1.756v-1.755a.263.263,0,0,0-.263-.263h0a.263.263,0,0,0-.263.263v1.755H1119.7a.005.005,0,0,1,0,0v-1.751a.263.263,0,0,0-.263-.263h0a.263.263,0,0,0-.263.263v1.755h-1.931v-1.755a.263.263,0,0,0-.263-.263h0a.263.263,0,0,0-.263.263v1.755h-1.722a.649.649,0,0,0-.648.649v16.084a.649.649,0,0,0,.648.649h11.344a.649.649,0,0,0,.649-.649V1747.59a.649.649,0,0,0-.649-.649h-1.985Zm2.107,18.61h-11.587v-16.328h1.844v1.844a.263.263,0,0,0,.263.263h0a.263.263,0,0,0,.263-.263v-1.844h1.931v1.844a.263.263,0,0,0,.263.263h0a.263.263,0,0,0,.263-.263v-1.844h1.844v1.756a.263.263,0,0,0,.263.263h0a.263.263,0,0,0,.263-.263v-1.756h1.756v1.931a.263.263,0,0,0,.263.263h0a.263.263,0,0,0,.263-.263v-1.931h2.107Z" transform="translate(-1114.341 -1744.923)"/><path class="b" d="M1128.552,1773.016h-8.515a.263.263,0,0,0-.263.263h0a.263.263,0,0,0,.263.263h8.515a.263.263,0,0,0,.263-.263h0A.263.263,0,0,0,1128.552,1773.016Z" transform="translate(-1117.974 -1763.711)"/><path class="b" d="M1119.772,1781.1h8.69a.263.263,0,0,0,.263-.263h0a.263.263,0,0,0-.263-.263h-8.69a.263.263,0,0,0-.263.263h0A.263.263,0,0,0,1119.772,1781.1Z" transform="translate(-1117.797 -1768.762)"/><path class="b" d="M1120.037,1788.649h8.515a.263.263,0,0,0,.263-.263h0a.264.264,0,0,0-.263-.264h-8.515a.264.264,0,0,0-.263.264h0A.263.263,0,0,0,1120.037,1788.649Z" transform="translate(-1117.974 -1773.814)"/></g></g></svg>